<svg width="100" height="100" viewBox="0 0 100 100" xmlns="http://www.w3.org/2000/svg">
  <defs>
    <linearGradient id="grad" x1="0%" y1="0%" x2="100%" y2="100%">
      <stop offset="0%" style="stop-color:#8c1eff;stop-opacity:1" />
      <stop offset="100%" style="stop-color:#a55dff;stop-opacity:1" />
    </linearGradient>
  </defs>
  <!-- Humanoid Head Shape -->
  <path d="M 50,10 C 35,10 25,25 25,40 C 25,55 35,70 50,70 C 65,70 75,55 75,40 C 75,25 65,10 50,10 Z" fill="url(#grad)" />
  <!-- Circuit Pattern -->
  <path d="M 35,30 L 40,30 L 40,35 L 45,35" stroke="white" stroke-width="2" fill="none" />
  <path d="M 65,50 L 60,50 L 60,45 L 55,45" stroke="white" stroke-width="2" fill="none" />
  <circle cx="50" cy="45" r="3" fill="white" />
  <!-- Shoulders/Body -->
  <path d="M 30,75 C 30,85 70,85 70,75 L 70,70 L 30,70 Z" fill="url(#grad)" />
</svg>
